/* XPM */
static const char *qsstv[]={
"32 32 10 1",
"# c None",
"b c #000000",
"f c #0000ff",
"h c #00c000",
"e c #00ff00",
"c c #585858",
"a c #a8dcff",
"g c #c0ffc0",
"d c #ff0000",
". c #ffffff",
"................................",
"#aaaaaaaaaaaaabaaaaaaaaaaaaaaaac",
"#dddddddaaaaaabaaaaaaddddddddddc",
"#ddddddddddaaabaaadddddddddddddc",
"#dddddddddddddbddddddddddddddddc",
"#eeeeeeeeeeddbabddeeeeeeeeeeeeec",
"#eeeeeeeeeeeebabeeeeeeeeeeeeeeec",
"#eeeeeeeeeeffbabffeeeeeeeeeeeeec",
"#fffffffffffbbaabffffffffffffffc",
"#fffffffffaabaaabaaffffffffffffc",
"#fffffffaaaabaaabaaaaffffffffffc",
"#aaaaaaaaaabaaaaabaaaaaaaaaaaaac",
"#aaaaaaaaaabbbbbbbaaaaaaaaaaaaac",
"#aaaaaaaaaabaaaaabaaaaaaaaaaaaac",
"#aaaaaaaaababaaababaaaaaaaaaaaac",
"#aaaaaaaaabaababaabaaaaaaaaaaaac",
"#aaaaaaaaabaaabaaabaaaaaaaaaaaac",
"#aaaaaaaaabbbbbbbbbaaaaaaaaaaaac",
"#aaaaaaaabbaaaaaaabbaaaaaaaaaaac",
"#aaaaaaaababaaaaababaaaaaaaaaaac",
"#aaaaaaaabaabaaabaabaaaaaaaaaaac",
"#aaaaaaabaaaababaaaabaaaaaaaaaac",
"#aaaaaaabaaaaabaaaaabaaaaaaaaaac",
"#aaaaaaabbbbbbbbbbbbbaaaaaaaaaac",
"#aaaaaababaaaaaaaaababaaaaaaaaac",
"#aaaaaabaabaaaaaaabaabaaaaaaaaac",
"#aaaaaabaaabaaaaabaaabaaaaaaaaac",
"#aaaaabaaaaabaaabaaaaabaaaaaaaac",
"#gggggbaaaaaababaaaaaabggggggggc",
"#eeeeebbbbbbbbbbbbbbbbbeeeeeeeec",
"#hhhhbhhhhhhhhhhhhhhhhhbhhhhhhhc",
"bbbbbbbbbbbbbbbbbbbbbbbbbbbbbbbb"};
