/* XPM */
static char *kb_icon[] = {
/* width height num_colors chars_per_pixel */
"    48    48      217            2",
/* colors */
".. c #040604",
".# c #f40204",
".a c #544a64",
".b c #3c022c",
".c c #040644",
".d c #24060c",
".e c #040624",
".f c #540244",
".g c #040e04",
".h c #3c0644",
".i c #240644",
".j c #140204",
".k c #141a44",
".l c #240e14",
".m c #040664",
".n c #240a2c",
".o c #14062c",
".p c #3c0a1c",
".q c #140644",
".r c #040a04",
".s c #54226c",
".t c #0c0e3c",
".u c #040654",
".v c #040634",
".w c #140a04",
".x c #34061c",
".y c #540a44",
".z c #04021c",
".A c #442664",
".B c #34062c",
".C c #4c0a2c",
".D c #4c062c",
".E c #24061c",
".F c #040a74",
".G c #4c0654",
".H c #140614",
".I c #4c0a44",
".J c #640a54",
".K c #140e0c",
".L c #3c0654",
".M c #3c0a34",
".N c #3c0634",
".O c #0c0644",
".P c #0c0624",
".Q c #341e4c",
".R c #040a14",
".S c #0c0654",
".T c #0c0634",
".U c #540a54",
".V c #3c164c",
".W c #34064c",
".X c #340e1c",
".Y c #0c0664",
".Z c #3c0a5c",
".0 c #2c061c",
".1 c #0c0204",
".2 c #746294",
".3 c #1c1a1c",
".4 c #4c2a5c",
".5 c #1c020c",
".6 c #240e2c",
".7 c #2c0634",
".8 c #140e5c",
".9 c #54326c",
"#. c #140a14",
"## c #0c0214",
"#a c #4c2e6c",
"#b c #340a2c",
"#c c #4c124c",
"#d c #3c2a54",
"#e c #5c064c",
"#f c #440244",
"#g c #3c0a2c",
"#h c #1c064c",
"#i c #4c2264",
"#j c #1c0e14",
"#k c #5c0a54",
"#l c #644e84",
"#m c #040a44",
"#n c #2c0614",
"#o c #040a24",
"#p c #0c0e04",
"#q c #2c0e54",
"#r c #140604",
"#s c #2c0e1c",
"#t c #040a64",
"#u c #1c0624",
"#v c #0c0a04",
"#w c #440a4c",
"#x c #040a54",
"#y c #040a34",
"#z c #340a1c",
"#A c #0c0674",
"#B c #1c0214",
"#C c #14121c",
"#D c #440654",
"#E c #440a34",
"#F c #0c0a44",
"#G c #0c0a24",
"#H c #0c0a14",
"#I c #0c0a54",
"#J c #0c0a34",
"#K c #2c0a1c",
"#L c #0c0604",
"#M c #2c063c",
"#N c #4c2674",
"#O c #3c0624",
"#P c #141614",
"#Q c #240a14",
"#R c #2c0a54",
"#S c #3c0e24",
"#T c #642a74",
"#U c #1c0a0c",
"#V c #5c0a4c",
"#W c #040614",
"#X c #34023c",
"#Y c #4c0e3c",
"#Z c #4c063c",
"#0 c #240a1c",
"#1 c #4c0a54",
"#2 c #9c92bc",
"#3 c #541e6c",
"#4 c #7c7294",
"#5 c #4c166c",
"#6 c #340e5c",
"#7 c #441e5c",
"#8 c #543a6c",
"#9 c #542a6c",
"a. c #5c3a7c",
"a# c #440e64",
"aa c #24063c",
"ab c #24161c",
"ac c #440634",
"ad c #1c0a14",
"ae c #340a3c",
"af c #0c0e14",
"ag c #54064c",
"ah c #240a4c",
"ai c #141214",
"aj c #3c1a54",
"ak c #340a44",
"al c #0c0a64",
"am c #140a3c",
"an c #2c0a2c",
"ao c #0c0614",
"ap c #440644",
"aq c #5c0e54",
"ar c #64527c",
"as c #140a44",
"at c #3c0e4c",
"au c #3c0e5c",
"av c #1c060c",
"aw c #3c0e2c",
"ax c #3c265c",
"ay c #1c0614",
"az c #34063c",
"aA c #04060c",
"aB c #04064c",
"aC c #240614",
"aD c #3c2254",
"aE c #04062c",
"aF c #3c064c",
"aG c #14020c",
"aH c #240e1c",
"aI c #04066c",
"aJ c #040a0c",
"aK c #04065c",
"aL c #04063c",
"aM c #140a0c",
"aN c #340624",
"aO c #540a4c",
"aP c #4c0a34",
"aQ c #4c0634",
"aR c #240624",
"aS c #14061c",
"aT c #640a5c",
"aU c #140e14",
"aV c #3c065c",
"aW c #3c0a3c",
"aX c #0c064c",
"aY c #0c062c",
"aZ c #040a1c",
"a0 c #0c065c",
"a1 c #0c063c",
"a2 c #0c066c",
"a3 c #2c0624",
"a4 c #0c020c",
"a5 c #240e34",
"a6 c #340a34",
"a7 c #44062c",
"a8 c #5c0654",
"a9 c #4c226c",
"b. c #040a4c",
"b# c #040a2c",
"ba c #0c0e0c",
"bb c #14060c",
"bc c #040a6c",
"bd c #0c0a0c",
"be c #040a5c",
"bf c #040a3c",
"bg c #340a24",
"bh c #0c067c",
"bi c #440a3c",
"bj c #0c0a4c",
"bk c #0c0a2c",
"bl c #0c0a1c",
"bm c #0c0a5c",
"bn c #0c0a3c",
"bo c #2c0a24",
"bp c #0c060c",
"bq c #3c062c",
"br c #14161c",
"bs c #04061c",
"bt c #4c0a5c",
"bu c #44063c",
"bv c #0c061c",
"bw c #1c0a4c",
/* pixels */
"aAaZ#ybfa1.OaX.ubea2.Fbhbc.maBaBa0aXaYao.raJaJaJbpaAbpaAbpaAbpaAbd..#Pbdbd..bd..bd..bd..bp.raAao",
"ao#G.v#m.TaLbj.u.maI#AaIbc.mbe#I.SaBa1aYaZblbl#HaJbpaJbpaJbpaJbp.rbpbd.r.3bd..bd..bd..bdaA#L..ao",
"aobv.eaE.PaLaBa0al.m.maI.Fbc.YaKbeaB.O.OaY.eaZbsbpaAbd#HaUaAbpaA#vaA#vbdbd.rbp.rbp.rbp.rbp.raAao",
"bpbpaoblbsbkaXbea2aKbe.Y.F.F#Aa2.maKaBaLb#.PblaAaJaAbdafafbpaJbpaA#vaAbd.rbp.rbp.rbp.rbpaA#v..bv",
"aJ.R.Rao#GaE.vb..8#IaK#ta2a2aI.YaIaK#mbkaYbvaAbpaA#W#WaA#HaAbp.r#vaA#v..bd..bd..babd#L.r#v..ao#H",
"aAaAbsaE.Tb#.e#o.t#I.YaI.m.Y.YaIaKaBbnb#bv#WbpaA.R#W.R#W#HbdaA#L.rbp.rbp.rbp.rbp#P..aJ#L.rbdaAbv",
"bpbp#o#mb.bn#o#W#oaB.maI.YaKa0a0aB.OaY.PaAaAbpaJbvblbsbl#WbpaA#vaA#vaA#vaA#vaA#vbdbd#LaJ#L.rao#W",
"a4bpaEbeaKaBaEbvaE#Ialbe.Ya0aBbfbf.vbkbvaAbdaAbpbsbsbvbsbpaAbp.rbp.rbp.rbp.rbp.rbp.rbd..#vaAbp#W",
"bvbvb##F.S.Oa1.T.T.c.SaBaKbja1.T.e.e#ob#aoaA#Wbsao#H.RbpaJ#LaJ#Lbr#vaA#vaA#vaA#vaA#vaA#vaAbp#Wao",
"a1.Ta1.c.uaX.O.TbkaLaL#Jbfbf.O.Oa1.v.T.vbk.R.raA.RaoaA..bp.rbp.rbd..aJ#LaJ#LaJ#LaJ#LaJ#L#WbpaAbp",
"a1bf.c#x.m.uaXa1aE#yaE#o#Wbk#m#IaB.ca1#y#JaZ.r.rbpbp.r#L.rbp.rbp.rbp#vaA#vaA#vaA#vaA#vaA#vaAbpaA",
"bkb#b.#t#tbe#I.c#Jbn#J.e#W.eaLb.aXaL#Jb#.P.RbpaJaAbp..#vaJ#LaJ#LaJ#LaJ#LaJ#LaJ#LaJ#LaJ#LaJ#L.r#v",
"bv.T.Oa0bmbjb.#I#m#mbnaYbsaYa1aXaL.ebvbl#WbpaA#L.r#v.r#LaJ#L#P#Pbp.rbp.rbp.rbp.rbp.rbp.rbp.rbpaA",
"a1.O.Sbm#Ibj#m.c#F#ma1bk.eaEa1.O.vaZ#WaoaAbpaJbp..bpaJbp.rbpaJ#LaJ#LaJ#LaJ#LaJ#LaJ#LaJ#LaJ#LaJ#v",
"bebm.S.S#I#Ibj#m#m#Fa1bk.eaYbn.T#ybsaAbpaAbpaA#H#v.#.#.#.#.#.#.#.#.#.##LaJ#LaJ#LaJ#LaJ#LaJ#LaJ#L",
"#tbeaBa1bm.Yalbj#m#maLaYaEbkaEaYaE#WaJbp#vaAbp#H#L.#.#.#.#.#.#.#.#.#.#.#.#aJ#LaJ#LaJ#LaJ#LaJ#LaJ",
".S#IaXaL#Iala0#Fa1bn.TaEaY.Pbs.e#G#Wbp...r#LaJ..bd.#.#.#.#.#.#.#.#.#.#.#.#.##Lbd..bd..bd..bd..bd",
".Obj.Obf.O.S.SaL.vaYbkaYbs#WaJ#H#H#Wbp.r#LaJ#Lbd#L.#.#.#.##r#L#L#r.#.#.#.#.#aJ#LaJ#LaJ#LaJ#LaJ#L",
"bn#maB.O.c.c.OaLaY.eaEbk.R.r.raAbpaA#vaA#vaAbd#P#L.#.#.#.##Lbdbd..bd.#.#.#.##Lbd..bd..bd..bd..bd",
"aL.S.SaX.Oa1aL#Jbv.#.#.#.#aA.raJ#v.r#L.#.#.#.#.#.K.#.#.#.##LaJ..bd#L.#.#.#.##vaA#vaA#vaA#vaA#vaA",
"bj#I.S.O#yb#b#b#aY.#.#.#.##LaUaA#LaJ.#.#.#.#.##Lbd.#.#.#.##Lbd#LaJ.#.#.#.#.#.K#LaJ#LaJ#LaJ#LaJ#L",
"#I#xaXa1bnb#bs#W#C.#.#.#.#aJ#LaJ#L.#.#.#.#.##Lbd#L.#.#.#.#.#.#.#.#.#.#.#.##Lbdbd..bd..bd..bd..bd",
"#x.OaLa1aY.P#Wbp#v.#.#.#.##L#vaJ.#.#.#.#.##rbd.rbp.#.#.#.#.#.#.#.#.#.#.#.##LaJ#LaJ#LaJ#Lbd#Pbp.r",
"bm.c#J.T###WaoaA#L.#.#.#.#bd#L.#.#.#.#.##L.rbp#P#L.#.#.#.#.#.#.#.#.#.#.#.#.##LaJ#LaJ#LaJ..bdaJ..",
".maBa1.ebs.P#W.r#L.#.#.#.#.1.#.#.#.#.#aMbdbp.rbp#v.#.#.#.##r#L#L#r#L.#.#.#.#.#.3..bp.rbp#LaJ..#v",
".Y.ua1aEbvaZ#W.r#L.#.#.#.#.#.#.#.#.##L#pbdaJ#LaJ#L.#.#.#.#aA#vbdaJbd#r.#.#.#.#....bd..bd.raA#Lbp",
"#x.ca1aY#G#WaJaA#L.#.#.#.#.#.#.#.#bb#v#v..#vaA#vbp.#.#.#.##Lbd..#L..bd.#.#.#.##Lbd..bd..aJ#Lbpbb",
"bfaEb#bs#G#H.raJbp.#.#.#.#.#.#.#.#aAbpaAbpaJ#LaJ#L.#.#.#.#bd..bdaJ#L.#.#.#.#.#bd..bd..bd.r#LaG#Q",
".T.z#G#WaAaA#L..bp.#.#.#.#.#.#.#.#.##vbd.r#LaJ#Lbd.#.#.#.#.#.#.#.#.#.#.#.#.##r..#Pai..bd#L#BaN#g",
".P.eaZ#Wbpbp.r#Lbp.#.#.#.##r.#.#.#.#.#aA#LaJ#LaJ#L.#.#.#.#.#.#.#.#.#.#.#.#.#..bd.raJbp.1ay#gac.N",
".R#Wao#W#H.RbpaA#L.#.#.#.##L#v.#.#.#.#.##vbp#Pbd#L.#.#.#.#.#.#.#.#.#.#.##r#Lbd..bp.r#L#Q#g.yaqaO",
"aAaAaAaJaoaoaAbd#L.#.#.#.##vbp#r.#.#.#.#.#.rbdaJ#Lbd#L#L#L#r#L#L#L#r#L#LaJ#LaA#vaA.gbb.X.f#eaTaq",
"bpbd#WaoaAaAbp..bd.#.#.#.##LaJ.K#v.#.#.#.#.##L#vbp.rbpbd..aJbdbdaJaJbd.rbdbp#L.r.rbpay#S.y#V#k.J",
".Rblbv.eaoaoaA#v#L.#.#.#.#bd#L..aA#r.#.#.#.#.#bd..bd..#vaA#vaA..#L..#Lbp#L#Q#Q.Hbb#Q#O.C.I.y.Ua8",
".e.e#obk.P#Wbp.r#L.#.#.#.##LaJbd#v..bd.#.#.#.#.#bd..bdaA#vaA#vbpbpbpbd.1#U.Xawbg.x#ga7aQ#Eap#1ag",
"b#aE.v.vaYbvaA#v#L.#.#.#.#bd#LaA..bd#L#r.#.#.#.#.#.3..bd..#LaA#L.1#L#jbb.d.p.D#YaQac.Ma6.Bbu#Dbt",
"b.#y.e.e.z#Wbp..bd#L#L#L#L#vaA#vbd..aJ#Lbd#L#L#L#L..bd..bp#LaJ#Lbp#UaMaJ.jbg#Obq.Bbgana3anak.WaV",
".k#o.Raoao#Wbp.r#L.rbdbdaJbp.rbp.rbp.rbp.rbp#vaJbdaJ#LaA#vbp#Lbp#Lad#Ubdav#s#naC#Q.EaR.7.iaa#hbw",
"aZbdaAbpaAbp..bdaAbd..#L.rbp.rbp.rbp.rbp#P..aA#L..bd..bd.raAbpab#UavadbdaMbbaCaNan.7ae#M.qamasbn",
"blaJbp###L.r#vaA#vaA#vaAbd..bd..bd..bd..ba#LaJ#vaAbp..aA.raJ#rad.l#Qavbb#v.Ha6.G.f.G.W#M.eamas#h",
"aAbp.r#v.rbp.rbp.r#LaJ#L.rbpai#H..#v..bd..bpaAaoao#W#HaJ.raJ#LaJ#L#vbb#n#Ka3#baW#f.Z.Z#R.ibwamam",
"aAbp..#L.rbp.rbp.rbp.rbp.rbpbr#HbpaAbpaA#vaAbpaAbvaY#G#.bp#LaA#L..bpad.X#Ebi#c.haz.La##5au#6ah.q",
"#H#HaAbd..bd..bd..bd..bd..bpaJaoaJbdbrbpaAbpaAaA#H##.o.6bd#L#L#LaUav.0#O#ZbuapaF.hat#3.sa9.s.A#q",
"#WaobpaAbd..bd..bd..bd..#vaAbpaA#Haoaf#Hao#W#L.raAbl#u.Ebbbb.1bbaH#O.Da7aPa7.hat#D#T#i.4#dax#a#N",
"bl#WbpaA#vaA#vaA#vaA#vaAbd..bdaAbpaAbd#W#v.rbd..aJaS.Eay..#L#L.w#U#zac.faP.N#Xbu#w.V#7.Q.aar#8.9",
"#HbpaAbp.rbp.rbp.rbp.rbp.rbp.r#LaJbpaA..aAbp.rbp#L#0boavavaM#r#L.w.5aNa7#E.B.7azae.VajaD#4#2#lax",
"aAbpaJ#v..bd..bd..bd..bd..bd..bd..#v..#v....bp.r.rayaCavavay#Q#QayaC.X#ga7.7.nbo.n.6a5.Q#l.2#l#7",
"bpaJ#L.rbd..bd..bd..bd..bd..bd..#v.r#v.rbpbd#vaA.gaAbbaM#.ay#K#Obg#b#E.b.b.0#uaS##a4.o.Q.9a.#9#7"
};
